<svg width="183" height="52" viewBox="0 0 183 52" fill="none" xmlns="http://www.w3.org/2000/svg">
<path d="M14.96 40.48C12.32 40.48 10.0133 39.88 8.04 38.68C6.06667 37.48 4.53333 35.8133 3.44 33.68C2.34667 31.52 1.8 29.0133 1.8 26.16C1.8 23.28 2.36 20.7467 3.48 18.56C4.62667 16.3467 6.24 14.6267 8.32 13.4C10.4267 12.1467 12.92 11.52 15.8 11.52C19.08 11.52 21.8 12.3067 23.96 13.88C26.12 15.4533 27.52 17.6267 28.16 20.4H22.44C22.0133 19.0933 21.24 18.08 20.12 17.36C19 16.6133 17.56 16.24 15.8 16.24C13 16.24 10.84 17.1333 9.32 18.92C7.8 20.68 7.04 23.1067 7.04 26.2C7.04 29.2933 7.78667 31.6933 9.28 33.4C10.8 35.08 12.8533 35.92 15.44 35.92C17.9733 35.92 19.88 35.24 21.16 33.88C22.4667 32.4933 23.2533 30.68 23.52 28.44H16.44V24.6H28.68V40H23.96L23.56 36.32C22.6533 37.6533 21.52 38.68 20.16 39.4C18.8 40.12 17.0667 40.48 14.96 40.48ZM33.5375 40V20.16H38.0975L38.5775 23.88C39.2975 22.6 40.2708 21.5867 41.4975 20.84C42.7508 20.0667 44.2175 19.68 45.8975 19.68V25.08H44.4575C43.3375 25.08 42.3375 25.2533 41.4575 25.6C40.5775 25.9467 39.8842 26.5467 39.3775 27.4C38.8975 28.2533 38.6575 29.44 38.6575 30.96V40H33.5375ZM58.5653 40.48C56.6453 40.48 54.912 40.04 53.3653 39.16C51.8453 38.28 50.632 37.0667 49.7253 35.52C48.8453 33.9467 48.4053 32.1333 48.4053 30.08C48.4053 28.0267 48.8586 26.2267 49.7653 24.68C50.672 23.1067 51.8853 21.88 53.4053 21C54.952 20.12 56.6853 19.68 58.6053 19.68C60.4986 19.68 62.2053 20.12 63.7253 21C65.272 21.88 66.4853 23.1067 67.3653 24.68C68.272 26.2267 68.7253 28.0267 68.7253 30.08C68.7253 32.1333 68.272 33.9467 67.3653 35.52C66.4853 37.0667 65.272 38.28 63.7253 39.16C62.1786 40.04 60.4586 40.48 58.5653 40.48ZM58.5653 36.04C59.8986 36.04 61.0586 35.5467 62.0453 34.56C63.032 33.5467 63.5253 32.0533 63.5253 30.08C63.5253 28.1067 63.032 26.6267 62.0453 25.64C61.0586 24.6267 59.912 24.12 58.6053 24.12C57.2453 24.12 56.072 24.6267 55.0853 25.64C54.1253 26.6267 53.6453 28.1067 53.6453 30.08C53.6453 32.0533 54.1253 33.5467 55.0853 34.56C56.072 35.5467 57.232 36.04 58.5653 36.04Z" fill="#FF6700"/>
<path d="M132.36 17.08C131.427 17.08 130.653 16.8 130.04 16.24C129.453 15.68 129.16 14.9733 129.16 14.12C129.16 13.2667 129.453 12.5733 130.04 12.04C130.653 11.48 131.427 11.2 132.36 11.2C133.293 11.2 134.053 11.48 134.64 12.04C135.253 12.5733 135.56 13.2667 135.56 14.12C135.56 14.9733 135.253 15.68 134.64 16.24C134.053 16.8 133.293 17.08 132.36 17.08ZM129.8 40V20.16H134.92V40H129.8ZM148.464 40.48C146.704 40.48 145.157 40.2 143.824 39.64C142.491 39.0533 141.424 38.2533 140.624 37.24C139.824 36.2267 139.344 35.0533 139.184 33.72H144.344C144.504 34.4933 144.931 35.16 145.624 35.72C146.344 36.2533 147.264 36.52 148.384 36.52C149.504 36.52 150.317 36.2933 150.824 35.84C151.357 35.3867 151.624 34.8667 151.624 34.28C151.624 33.4267 151.251 32.8533 150.504 32.56C149.757 32.24 148.717 31.9333 147.384 31.64C146.531 31.4533 145.664 31.2267 144.784 30.96C143.904 30.6933 143.091 30.36 142.344 29.96C141.624 29.5333 141.037 29 140.584 28.36C140.131 27.6933 139.904 26.88 139.904 25.92C139.904 24.16 140.597 22.68 141.984 21.48C143.397 20.28 145.371 19.68 147.904 19.68C150.251 19.68 152.117 20.2267 153.504 21.32C154.917 22.4133 155.757 23.92 156.024 25.84H151.184C150.891 24.3733 149.784 23.64 147.864 23.64C146.904 23.64 146.157 23.8267 145.624 24.2C145.117 24.5733 144.864 25.04 144.864 25.6C144.864 26.1867 145.251 26.6533 146.024 27C146.797 27.3467 147.824 27.6667 149.104 27.96C150.491 28.28 151.757 28.64 152.904 29.04C154.077 29.4133 155.011 29.9867 155.704 30.76C156.397 31.5067 156.744 32.5867 156.744 34C156.771 35.2267 156.451 36.3333 155.784 37.32C155.117 38.3067 154.157 39.08 152.904 39.64C151.651 40.2 150.171 40.48 148.464 40.48ZM170.92 40.48C168.92 40.48 167.146 40.0533 165.6 39.2C164.053 38.3467 162.84 37.1467 161.96 35.6C161.08 34.0533 160.64 32.2667 160.64 30.24C160.64 28.1867 161.066 26.36 161.92 24.76C162.8 23.16 164 21.92 165.52 21.04C167.066 20.1333 168.88 19.68 170.96 19.68C172.906 19.68 174.626 20.1067 176.12 20.96C177.613 21.8133 178.773 22.9867 179.6 24.48C180.453 25.9467 180.88 27.5867 180.88 29.4C180.88 29.6933 180.866 30 180.84 30.32C180.84 30.64 180.826 30.9733 180.8 31.32H165.72C165.826 32.8667 166.36 34.08 167.32 34.96C168.306 35.84 169.493 36.28 170.88 36.28C171.92 36.28 172.786 36.0533 173.48 35.6C174.2 35.12 174.733 34.5067 175.08 33.76H180.28C179.906 35.0133 179.28 36.16 178.4 37.2C177.546 38.2133 176.48 39.0133 175.2 39.6C173.946 40.1867 172.52 40.48 170.92 40.48ZM170.96 23.84C169.706 23.84 168.6 24.2 167.64 24.92C166.68 25.6133 166.066 26.68 165.8 28.12H175.68C175.6 26.8133 175.12 25.7733 174.24 25C173.36 24.2267 172.266 23.84 170.96 23.84Z" fill="#FF6700"/>
<path d="M95.5 40L90.5 24L84.5297 40H78.5L71.5 22H77L81.5 35L88 18.5H93.5L98.62 34.28L104.5 13H110.5L115.94 34.28L121.5 9.5H126.5L118.9 40H112.82L107.26 19.24L101.54 40H95.5Z" fill="#FF6700"/>
</svg>
